<?xml version="1.0" encoding="UTF-8" standalone="no"?>
<!DOCTYPE svg PUBLIC "-//W3C//DTD SVG 20010904//EN"
              "http://www.w3.org/TR/2001/REC-SVG-20010904/DTD/svg10.dtd">

<svg xmlns="http://www.w3.org/2000/svg"
     width="42.3334mm" height="42.3334mm"
     viewBox="0 0 500 500">
  <path id="Valg"
        fill="none" stroke="black" stroke-width="1"
        d="M 245.00,447.00
           C 245.00,447.00 223.95,389.00 223.95,389.00
             223.95,389.00 203.31,331.00 203.31,331.00
             203.31,331.00 182.00,271.00 182.00,271.00
             179.28,275.43 174.93,290.20 173.00,296.00
             173.00,296.00 156.67,346.00 156.67,346.00
             153.77,354.70 148.21,367.24 151.56,376.00
             154.35,383.31 164.82,389.36 171.00,394.21
             171.00,394.21 223.00,433.37 223.00,433.37
             223.00,433.37 238.00,444.65 238.00,444.65
             240.08,446.24 243.32,449.16 246.00,449.27
             248.84,449.39 251.88,446.65 254.00,445.00
             254.00,445.00 269.00,433.63 269.00,433.63
             269.00,433.63 319.00,396.13 319.00,396.13
             324.69,391.86 337.59,382.95 340.43,377.00
             344.35,368.80 340.15,359.97 337.86,352.00
             337.86,352.00 319.00,292.00 319.00,292.00
             319.00,292.00 305.98,250.00 305.98,250.00
             305.98,250.00 273.98,148.00 273.98,148.00
             273.98,148.00 258.66,99.00 258.66,99.00
             258.66,99.00 249.00,67.00 249.00,67.00
             249.00,67.00 265.69,113.00 265.69,113.00
             265.69,113.00 290.33,182.00 290.33,182.00
             290.33,182.00 304.19,221.00 304.19,221.00
             304.19,221.00 311.00,238.00 311.00,238.00
             311.00,238.00 330.67,179.00 330.67,179.00
             330.67,179.00 341.90,142.00 341.90,142.00
             342.66,130.88 335.97,126.37 328.00,120.37
             328.00,120.37 297.00,97.13 297.00,97.13
             297.00,97.13 262.00,70.65 262.00,70.65
             259.33,68.59 249.64,60.80 247.00,60.36
             244.08,59.88 241.19,62.50 239.00,64.13
             239.00,64.13 223.00,76.37 223.00,76.37
             223.00,76.37 173.00,113.87 173.00,113.87
             166.08,119.06 154.73,126.05 151.48,134.00
             147.93,142.68 152.98,152.63 155.66,161.00
             155.66,161.00 174.33,221.00 174.33,221.00
             174.33,221.00 189.02,268.00 189.02,268.00
             189.02,268.00 220.02,367.00 220.02,367.00
             220.02,367.00 245.00,447.00 245.00,447.00 Z" />
</svg>
