<?xml version="1.0" encoding="UTF-8" standalone="no"?>
<!DOCTYPE svg PUBLIC "-//W3C//DTD SVG 1.1//EN" "http://www.w3.org/Graphics/SVG/1.1/DTD/svg11.dtd">
<!-- Created with Vectornator (http://vectornator.io/) -->
<svg height="100%" stroke-miterlimit="10" style="fill-rule:nonzero;clip-rule:evenodd;stroke-linecap:round;stroke-linejoin:round;" version="1.1" viewBox="0 0 64 64" width="100%" xml:space="preserve" xmlns="http://www.w3.org/2000/svg" xmlns:vectornator="http://vectornator.io" xmlns:xlink="http://www.w3.org/1999/xlink">
<defs/>
<g id="Untitled" vectornator:layerName="Untitled">
<g opacity="1" vectornator:layerName="g">
<g opacity="1" vectornator:layerName="g">
<path d="M61.923 32.382C62.0241 32.1374 62.0241 31.8626 61.923 31.618C61.8731 31.496 61.7993 31.3851 61.706 31.292L58.706 28.292C58.3136 27.913 57.6899 27.9184 57.3042 28.3042C56.9184 28.6899 56.913 29.3136 57.292 29.706L58.586 31L33 31C32.4477 31 32 31.4477 32 32C32 32.5523 32.4477 33 33 33L58.586 33L57.293 34.293C57.033 34.5441 56.9288 34.9159 57.0203 35.2655C57.1118 35.6151 57.3849 35.8882 57.7345 35.9797C58.0841 36.0712 58.4559 35.967 58.707 35.707L61.707 32.707C61.7998 32.6141 61.8733 32.5036 61.923 32.382Z" fill="#000000" fill-rule="nonzero" opacity="1" stroke="none" vectornator:layerName="path"/>
<path d="M56.92 38.618C56.8704 38.496 56.797 38.3852 56.704 38.292L53.704 35.292C53.3116 34.913 52.6879 34.9184 52.3022 35.3042C51.9164 35.6899 51.911 36.3136 52.29 36.706L53.583 38L38 38C37.4477 38 37 38.4477 37 39C37 39.5523 37.4477 40 38 40L41 40L41 50.29L23 56.59L23 7.409L41 13.709L41 24L38 24C37.4477 24 37 24.4477 37 25C37 25.5523 37.4477 26 38 26L53.586 26L52.293 27.293C52.033 27.5441 51.9288 27.9159 52.0203 28.2655C52.1118 28.6151 52.3849 28.8882 52.7345 28.9797C53.0841 29.0712 53.4559 28.967 53.707 28.707L56.707 25.707C56.8003 25.6139 56.8741 25.503 56.924 25.381C57.0251 25.1364 57.0251 24.8616 56.924 24.617C56.8741 24.495 56.8003 24.3841 56.707 24.291L53.707 21.291C53.3146 20.912 52.6909 20.9174 52.3052 21.3032C51.9194 21.6889 51.914 22.3126 52.293 22.705L53.586 24L43 24L43 13C43.0002 12.5752 42.7319 12.1966 42.331 12.056L22.331 5.056C22.025 4.94867 21.686 4.99637 21.4215 5.18396C21.157 5.37155 20.9999 5.67574 21 6L21 33.041C19.6371 32.8305 18.2776 33.44 17.528 34.5975C16.7784 35.7551 16.7784 37.2449 17.528 38.4025C18.2776 39.56 19.6371 40.1695 21 39.959L21 42.5C20.1716 42.5 19.5 43.1716 19.5 44C19.5 44.8284 20.1716 45.5 21 45.5L21 58C21 58.5523 21.4477 59 22 59C22.1127 58.9997 22.2245 58.9808 22.331 58.944L42.331 51.944C42.7319 51.8034 43.0002 51.4248 43 51L43 40L53.583 40L52.291 41.293C52.031 41.5441 51.9268 41.9159 52.0183 42.2655C52.1098 42.6151 52.3829 42.8882 52.7325 42.9797C53.0821 43.0712 53.4539 42.967 53.705 42.707L56.705 39.707C56.9893 39.42 57.0744 38.9907 56.921 38.617L56.92 38.618ZM20.5 38C19.9 38.0047 19.355 37.6513 19.1143 37.1017C18.8737 36.5521 18.9836 35.912 19.394 35.4742C19.8043 35.0365 20.436 34.8853 21 35.09L21 37.91C20.8396 37.9679 20.6705 37.9984 20.5 38Z" fill="#000000" fill-rule="nonzero" opacity="1" stroke="none" vectornator:layerName="path"/>
<path d="M8.5 24C10.433 24 12 22.433 12 20.5C12 18.567 10.433 17 8.5 17C6.567 17 5 18.567 5 20.5C5 22.433 6.567 24 8.5 24ZM8.5 19C9.32843 19 10 19.6716 10 20.5C10 21.3284 9.32843 22 8.5 22C7.67157 22 7 21.3284 7 20.5C7 19.6716 7.67157 19 8.5 19Z" fill="#000000" fill-rule="nonzero" opacity="1" stroke="none" vectornator:layerName="path"/>
<path d="M14 35.5C14 33.0147 11.9853 31 9.5 31C7.01472 31 5 33.0147 5 35.5C5 37.9853 7.01472 40 9.5 40C11.9841 39.9972 13.9972 37.9841 14 35.5ZM9.5 38C8.11929 38 7 36.8807 7 35.5C7 34.1193 8.11929 33 9.5 33C10.8807 33 12 34.1193 12 35.5C12 36.8807 10.8807 38 9.5 38Z" fill="#000000" fill-rule="nonzero" opacity="1" stroke="none" vectornator:layerName="path"/>
<path d="M19 27.5C19 26.1193 17.8807 25 16.5 25C15.1193 25 14 26.1193 14 27.5C14 28.8807 15.1193 30 16.5 30C17.8807 30 19 28.8807 19 27.5ZM16.5 28C16.2239 28 16 27.7761 16 27.5C16 27.2239 16.2239 27 16.5 27C16.7761 27 17 27.2239 17 27.5C17 27.7761 16.7761 28 16.5 28Z" fill="#000000" fill-rule="nonzero" opacity="1" stroke="none" vectornator:layerName="path"/>
<path d="M17.5 22C18.3284 22 19 21.3284 19 20.5C19 19.6716 18.3284 19 17.5 19C16.6716 19 16 19.6716 16 20.5C16 21.3284 16.6716 22 17.5 22Z" fill="#000000" fill-rule="nonzero" opacity="1" stroke="none" vectornator:layerName="path"/>
<path d="M3.5 27C2.67157 27 2 27.6716 2 28.5C2 29.3284 2.67157 30 3.5 30C4.32843 30 5 29.3284 5 28.5C5 27.6716 4.32843 27 3.5 27Z" fill="#000000" fill-rule="nonzero" opacity="1" stroke="none" vectornator:layerName="path"/>
<path d="M13 42C11.3431 42 10 43.3431 10 45C10 46.6569 11.3431 48 13 48C14.6569 48 16 46.6569 16 45C16 43.3431 14.6569 42 13 42ZM13 46C12.4477 46 12 45.5523 12 45C12 44.4477 12.4477 44 13 44C13.5523 44 14 44.4477 14 45C14 45.5523 13.5523 46 13 46Z" fill="#000000" fill-rule="nonzero" opacity="1" stroke="none" vectornator:layerName="path"/>
</g>
</g>
</g>
</svg>
