<?xml version="1.0" encoding="UTF-8" standalone="no"?>
<!DOCTYPE svg PUBLIC "-//W3C//DTD SVG 1.1//EN" "http://www.w3.org/Graphics/SVG/1.1/DTD/svg11.dtd">
<!-- Created with Vectornator (http://vectornator.io/) -->
<svg height="100%" stroke-miterlimit="10" style="fill-rule:nonzero;clip-rule:evenodd;stroke-linecap:round;stroke-linejoin:round;" version="1.1" viewBox="0 0 74 74" width="100%" xml:space="preserve" xmlns="http://www.w3.org/2000/svg" xmlns:vectornator="http://vectornator.io" xmlns:xlink="http://www.w3.org/1999/xlink">
<defs/>
<clipPath id="ArtboardFrame">
<rect height="74" width="74" x="0" y="0"/>
</clipPath>
<g clip-path="url(#ArtboardFrame)" id="Untitled" vectornator:layerName="Untitled">
<path d="M37 0C16.5892 0 0 16.5892 0 37C0 57.4107 16.5893 74 37 74C57.4108 74 74 57.4107 74 37C74 16.5892 57.4108 0 37 0ZM37 4C55.249 4 70 18.751 70 37C70 55.249 55.249 70 37 70C18.751 70 4 55.249 4 37C4 18.751 18.751 4 37 4ZM37 11C35.8954 11 35 11.8954 35 13L35 37C35 37.7396 35.4031 38.3727 36 38.7187C42.3337 42.3721 48.7134 46.0546 55.0625 49.7187C56.0192 50.271 57.2291 49.9566 57.7812 49C58.3337 48.0434 58.0191 46.8335 57.0625 46.2812L39 35.8437L39 13C39 11.8954 38.1046 11 37 11Z" fill="#000000" fill-rule="nonzero" opacity="1" stroke="none" vectornator:layerName="path"/>
</g>
</svg>
