<?xml version="1.0" encoding="UTF-8" standalone="no"?>
<!DOCTYPE svg PUBLIC "-//W3C//DTD SVG 1.1//EN" "http://www.w3.org/Graphics/SVG/1.1/DTD/svg11.dtd">
<!-- Created with Vectornator (http://vectornator.io/) -->
<svg height="100%" stroke-miterlimit="10" style="fill-rule:nonzero;clip-rule:evenodd;stroke-linecap:round;stroke-linejoin:round;" version="1.1" viewBox="0 0 110 100" width="100%" xml:space="preserve" xmlns="http://www.w3.org/2000/svg" xmlns:vectornator="http://vectornator.io" xmlns:xlink="http://www.w3.org/1999/xlink">
<defs/>
<g id="Untitled" vectornator:layerName="Untitled">
<path d="M26 81C-3 82-3 47 16 42C25 10 64 10 73 42C80 43 86 50 86 56" fill="none" opacity="1" stroke="#000000" stroke-linecap="round" stroke-linejoin="miter" stroke-width="4" vectornator:layerName="path"/>
<g fill="#000000" opacity="1" stroke="none" vectornator:layerName="Text 1">
<path d="M33.7969 82L33.7969 59.0938L50.3594 59.0938L50.3594 61.7969L36.8281 61.7969L36.8281 68.8125L49.5 68.8125L49.5 71.5L36.8281 71.5L36.8281 79.2969L50.8906 79.2969L50.8906 82L33.7969 82Z"/>
<path d="M60.8594 79.4844L61.2656 81.9688C60.474 82.1354 59.7656 82.2188 59.1406 82.2188C58.1198 82.2188 57.3281 82.0573 56.7656 81.7344C56.2031 81.4115 55.8073 80.987 55.5781 80.4609C55.349 79.9349 55.2344 78.8281 55.2344 77.1406L55.2344 67.5938L53.1719 67.5938L53.1719 65.4062L55.2344 65.4062L55.2344 61.2969L58.0312 59.6094L58.0312 65.4062L60.8594 65.4062L60.8594 67.5938L58.0312 67.5938L58.0312 77.2969C58.0312 78.099 58.0807 78.6146 58.1797 78.8438C58.2786 79.0729 58.4401 79.2552 58.6641 79.3906C58.888 79.526 59.2083 79.5938 59.625 79.5938C59.9375 79.5938 60.349 79.5573 60.8594 79.4844Z"/>
<path d="M63.0469 70.8438C63.0469 67.0417 64.0677 64.0651 66.1094 61.9141C68.151 59.763 70.7865 58.6875 74.0156 58.6875C76.1302 58.6875 78.0365 59.1927 79.7344 60.2031C81.4323 61.2135 82.7266 62.6224 83.6172 64.4297C84.5078 66.237 84.9531 68.2865 84.9531 70.5781C84.9531 72.901 84.4844 74.9792 83.5469 76.8125C82.6094 78.6458 81.2813 80.0339 79.5625 80.9766C77.8437 81.9193 75.9896 82.3906 74 82.3906C71.8437 82.3906 69.9167 81.8698 68.2188 80.8281C66.5208 79.7865 65.2344 78.3646 64.3594 76.5625C63.4844 74.7604 63.0469 72.8542 63.0469 70.8438ZM66.1719 70.8906C66.1719 73.651 66.9141 75.8255 68.3984 77.4141C69.8828 79.0026 71.7448 79.7969 73.9844 79.7969C76.2656 79.7969 78.1432 78.9948 79.6172 77.3906C81.0911 75.7865 81.8281 73.5104 81.8281 70.5625C81.8281 68.6979 81.513 67.0703 80.8828 65.6797C80.2526 64.2891 79.3307 63.2109 78.1172 62.4453C76.9036 61.6797 75.5417 61.2969 74.0312 61.2969C71.8854 61.2969 70.0391 62.0339 68.4922 63.5078C66.9453 64.9818 66.1719 67.4427 66.1719 70.8906Z"/>
<path d="M88.9531 82L88.9531 59.0938L91.9844 59.0938L91.9844 68.5L103.891 68.5L103.891 59.0938L106.922 59.0938L106.922 82L103.891 82L103.891 71.2031L91.9844 71.2031L91.9844 82L88.9531 82Z"/>
</g>
</g>
</svg>
