<?xml version="1.0" encoding="utf-8"?>
<!-- Svg Vector Icons : http://www.onlinewebfonts.com/icon -->
<!DOCTYPE svg PUBLIC "-//W3C//DTD SVG 1.1//EN" "http://www.w3.org/Graphics/SVG/1.1/DTD/svg11.dtd">
<svg xmlns:dc="http://purl.org/dc/elements/1.1/" xmlns:cc="http://creativecommons.org/ns#" xmlns:rdf="http://www.w3.org/1999/02/22-rdf-syntax-ns#" xmlns:svg="http://www.w3.org/2000/svg" xmlns="http://www.w3.org/2000/svg" viewBox="0 0 400 133.33333" height="133.33333" width="400" xml:space="preserve" id="svg2" version="1.1"><metadata id="metadata8"><rdf:rdf><cc:work rdf:about=""><dc:format>image/svg+xml</dc:format><dc:type rdf:resource="http://purl.org/dc/dcmitype/StillImage"></dc:type></cc:work></rdf:rdf></metadata><defs id="defs6"><clipPath id="clipPath18" clipPathUnits="userSpaceOnUse"><path id="path16" d="M 0,100 H 300 V 0 H 0 Z"></path></clipPath></defs><g transform="matrix(1.3333333,0,0,-1.3333333,0,133.33333)" id="g10"><g id="g12"><g clip-path="url(#clipPath18)" id="g14"><g transform="translate(76.7887,24.2815)" id="g20"><path id="path22" style="fill:#15b7e8;fill-opacity:1;fill-rule:nonzero;stroke:none" d="m 0,0 -23.544,72.461 15.933,-43.164 7.567,22.436 c 0.589,1.746 -0.025,3.673 -1.516,4.756 L -6.572,60.13 -23.544,72.461 -45.557,56.468 c -1.477,-1.073 -2.095,-2.976 -1.531,-4.712 l 23.544,-72.461 -15.933,43.164 -7.567,-22.436 c -0.589,-1.746 0.025,-3.672 1.516,-4.756 l 7.634,-5.546 0.214,-0.156 13.453,-9.774 v 0 l 0.683,-0.496 0.002,0.002 22.011,15.992 C -0.054,-3.638 0.564,-1.736 0,0"></path></g><g transform="translate(103.936,70.0028)" id="g24"><path id="path26" style="fill:#15b7e8;fill-opacity:1;fill-rule:nonzero;stroke:none" d="m 0,0 c -3.177,0 -5.77,-0.931 -7.779,-2.791 -2.009,-1.86 -3.014,-4.256 -3.014,-7.186 0,-2.843 0.899,-5.111 2.699,-6.805 1.798,-1.693 4.444,-3.075 7.936,-4.146 3.071,-1.003 5.216,-2.161 6.436,-3.473 1.22,-1.312 1.83,-3.015 1.83,-5.11 0,-2.184 -0.729,-3.936 -2.185,-5.257 -1.457,-1.32 -3.379,-1.98 -5.765,-1.98 -2.422,0 -4.497,0.71 -6.226,2.131 -1.298,1.067 -2.104,2.584 -2.426,4.544 -0.089,0.545 -0.737,0.791 -1.183,0.467 l -1.395,-1.013 c -0.235,-0.171 -0.356,-0.467 -0.292,-0.751 0.473,-2.126 1.516,-3.851 3.138,-5.168 2.377,-1.931 5.172,-2.896 8.384,-2.896 3.264,0 5.936,0.9 8.016,2.699 2.079,1.798 3.119,4.233 3.119,7.304 0,2.931 -0.882,5.296 -2.645,7.095 -1.764,1.799 -4.349,3.224 -7.753,4.277 -3.089,0.965 -5.278,2.093 -6.568,3.383 -1.29,1.29 -1.935,2.883 -1.935,4.778 0,2.036 0.667,3.729 2.001,5.08 1.334,1.351 3.203,2.027 5.607,2.027 2.474,0 4.418,-0.812 5.831,-2.434 0.854,-0.982 1.447,-2.134 1.784,-3.454 0.131,-0.515 0.727,-0.748 1.158,-0.436 l 1.371,0.996 c 0.256,0.187 0.374,0.519 0.275,0.82 C 9.933,-5.821 9.144,-4.483 8.042,-3.291 6.015,-1.097 3.334,0 0,0"></path></g><g transform="translate(124.5139,49.6541)" id="g28"><path id="path30" style="fill:#15b7e8;fill-opacity:1;fill-rule:nonzero;stroke:none" d="m 0,0 h 14.315 c 0.41,0 0.742,0.332 0.742,0.742 v 1.201 c 0,0.41 -0.332,0.742 -0.742,0.742 H 0 v 14.32 h 16.395 c 0.41,0 0.742,0.332 0.742,0.742 v 1.307 c 0,0.409 -0.332,0.742 -0.742,0.742 H -2.417 c -0.41,0 -0.742,-0.333 -0.742,-0.742 V -17.79 c 0,-0.41 0.332,-0.742 0.742,-0.742 h 18.97 c 0.41,0 0.742,0.332 0.742,0.742 v 1.201 c 0,0.41 -0.332,0.742 -0.742,0.742 l -16.553,0 z"></path></g><g transform="translate(167.8355,37.3872)" id="g32"><path id="path34" style="fill:#15b7e8;fill-opacity:1;fill-rule:nonzero;stroke:none" d="M 0,0 -0.158,-0.026 -17.059,31.67 c -0.129,0.242 -0.381,0.393 -0.655,0.393 h -1.998 c -0.41,0 -0.742,-0.333 -0.742,-0.742 V -5.523 c 0,-0.41 0.332,-0.742 0.742,-0.742 h 1.702 c 0.409,0 0.741,0.332 0.741,0.742 v 31.32 l 0.158,0.027 16.902,-31.696 c 0.128,-0.242 0.38,-0.393 0.654,-0.393 h 1.972 c 0.41,0 0.742,0.332 0.742,0.742 v 36.844 c 0,0.409 -0.332,0.742 -0.742,0.742 H 0.742 C 0.332,32.063 0,31.73 0,31.321 Z"></path></g><g transform="translate(207.6534,31.1221)" id="g36"><path id="path38" style="fill:#15b7e8;fill-opacity:1;fill-rule:nonzero;stroke:none" d="m 0,0 h 1.701 c 0.41,0 0.742,0.332 0.742,0.742 v 36.844 c 0,0.41 -0.332,0.742 -0.742,0.742 H 0 c -0.41,0 -0.742,-0.332 -0.742,-0.742 V 0.742 C -0.742,0.332 -0.41,0 0,0"></path></g><g transform="translate(235.3204,35.8803)" id="g40"><path id="path42" style="fill:#15b7e8;fill-opacity:1;fill-rule:nonzero;stroke:none" d="m 0,0 c -1.255,-1.382 -2.997,-2.073 -5.225,-2.073 h -8.056 v 15.768 h 8.556 c 2.175,0 3.821,-0.731 4.936,-2.192 C 1.325,10.041 1.882,8.148 1.882,5.824 1.882,3.323 1.254,1.382 0,0 m -13.281,30.779 h 6.476 c 2.387,0 4.207,-0.607 5.462,-1.82 1.255,-1.213 1.883,-3.015 1.883,-5.406 0,-2.285 -0.562,-4.04 -1.685,-5.261 -1.123,-1.222 -2.677,-1.859 -4.66,-1.912 h -7.476 z M -1.566,15.337 c 1.596,0.58 2.878,1.594 3.843,3.043 0.965,1.449 1.448,3.14 1.448,5.072 0,3.372 -0.931,5.902 -2.791,7.588 -1.86,1.686 -4.44,2.529 -7.739,2.529 h -8.893 c -0.409,0 -0.741,-0.332 -0.741,-0.741 V -4.016 c 0,-0.41 0.332,-0.742 0.741,-0.742 h 10.473 c 3.141,0 5.637,0.916 7.489,2.748 1.851,1.833 2.777,4.468 2.777,7.905 0,2.349 -0.605,4.409 -1.817,6.18 -1.21,1.771 -2.807,2.859 -4.79,3.262"></path></g><g transform="translate(266.3618,44.8892)" id="g44"><path id="path46" style="fill:#15b7e8;fill-opacity:1;fill-rule:nonzero;stroke:none" d="m 0,0 c 0,-3.843 -0.776,-6.722 -2.33,-8.634 -1.553,-1.913 -3.786,-2.869 -6.699,-2.869 -2.843,0 -5.019,0.956 -6.528,2.869 -1.51,1.912 -2.265,4.791 -2.265,8.634 v 10.819 c 0,3.791 0.755,6.643 2.265,8.555 1.509,1.913 3.676,2.87 6.502,2.87 2.913,0 5.15,-0.957 6.712,-2.87 C -0.781,17.462 0,14.61 0,10.819 Z m -0.132,21.402 c -2.176,2.474 -5.151,3.712 -8.923,3.712 -3.704,0 -6.607,-1.234 -8.713,-3.699 -2.106,-2.466 -3.159,-6.024 -3.159,-10.675 V 0 c 0,-4.65 1.057,-8.2 3.171,-10.648 2.115,-2.448 5.024,-3.672 8.727,-3.672 3.773,0 6.743,1.224 8.91,3.672 C 2.049,-8.2 3.132,-4.65 3.132,0 v 10.74 c 0,4.633 -1.088,8.187 -3.264,10.662"></path></g><g transform="translate(189.045,70.0028)" id="g48"><path id="path50" style="fill:#15b7e8;fill-opacity:1;fill-rule:nonzero;stroke:none" d="m 0,0 c -3.177,0 -5.77,-0.931 -7.779,-2.791 -2.009,-1.86 -3.014,-4.256 -3.014,-7.186 0,-2.843 0.899,-5.111 2.699,-6.805 1.798,-1.693 4.444,-3.075 7.936,-4.146 3.071,-1.003 5.216,-2.161 6.436,-3.473 1.22,-1.312 1.83,-3.015 1.83,-5.11 0,-2.184 -0.729,-3.936 -2.185,-5.257 -1.457,-1.32 -3.379,-1.98 -5.765,-1.98 -2.422,0 -4.497,0.71 -6.226,2.131 -1.298,1.067 -2.104,2.584 -2.426,4.544 -0.089,0.545 -0.737,0.791 -1.183,0.467 l -1.395,-1.013 c -0.235,-0.171 -0.356,-0.467 -0.292,-0.751 0.473,-2.126 1.516,-3.851 3.138,-5.168 2.377,-1.931 5.172,-2.896 8.384,-2.896 3.264,0 5.936,0.9 8.016,2.699 2.079,1.798 3.119,4.233 3.119,7.304 0,2.931 -0.882,5.296 -2.645,7.095 -1.764,1.799 -4.349,3.224 -7.753,4.277 -3.089,0.965 -5.278,2.093 -6.568,3.383 -1.29,1.29 -1.935,2.883 -1.935,4.778 0,2.036 0.667,3.729 2.001,5.08 1.334,1.351 3.203,2.027 5.607,2.027 2.474,0 4.418,-0.812 5.831,-2.434 0.854,-0.982 1.447,-2.134 1.784,-3.454 0.131,-0.515 0.727,-0.748 1.158,-0.436 l 1.371,0.996 c 0.256,0.187 0.374,0.519 0.275,0.82 C 9.933,-5.821 9.144,-4.483 8.042,-3.291 6.015,-1.097 3.334,0 0,0"></path></g></g></g></g></svg>
