<?xml version="1.0" encoding="UTF-8" standalone="no"?>
<!DOCTYPE svg PUBLIC "-//W3C//DTD SVG 20010904//EN"
              "http://www.w3.org/TR/2001/REC-SVG-20010904/DTD/svg10.dtd">

<svg xmlns="http://www.w3.org/2000/svg"
     width="42.3334mm" height="42.3334mm"
     viewBox="0 0 500 500">
  <path id="Valg"
        fill="none" stroke="black" stroke-width="10"
        d="M 251.00,60.00
           C 251.00,60.00 220.00,83.37 220.00,83.37
             220.00,83.37 178.00,115.13 178.00,115.13
             169.08,121.82 155.05,129.04 156.34,142.00
             156.34,142.00 164.66,170.00 164.66,170.00
             164.66,170.00 181.28,223.00 181.28,223.00
             181.28,223.00 230.02,379.00 230.02,379.00
             230.02,379.00 252.00,450.00 252.00,450.00
             252.00,450.00 277.00,431.87 277.00,431.87
             277.00,431.87 321.00,398.63 321.00,398.63
             328.55,392.96 343.87,383.70 346.89,375.00
             349.65,367.06 344.93,355.82 342.33,348.00
             342.33,348.00 325.67,295.00 325.67,295.00
             325.67,295.00 273.67,129.00 273.67,129.00
             273.67,129.00 258.67,81.00 258.67,81.00
             256.60,74.67 254.77,65.27 251.00,60.00 Z
           M 254.00,61.00
           C 254.00,61.00 266.31,97.00 266.31,97.00
             266.31,97.00 292.31,170.00 292.31,170.00
             292.31,170.00 308.31,215.00 308.31,215.00
             308.31,215.00 317.00,238.00 317.00,238.00
             317.00,238.00 335.67,181.00 335.67,181.00
             335.67,181.00 347.80,142.00 347.80,142.00
             349.01,129.33 335.70,122.15 327.00,115.63
             327.00,115.63 254.00,61.00 254.00,61.00 Z
           M 187.00,271.00
           C 187.00,271.00 165.00,340.00 165.00,340.00
             162.75,346.76 155.83,364.88 156.55,371.00
             157.88,382.17 171.63,389.85 180.00,396.13
             180.00,396.13 226.00,430.87 226.00,430.87
             226.00,430.87 251.00,449.00 251.00,449.00
             251.00,449.00 236.69,409.00 236.69,409.00
             236.69,409.00 209.69,333.00 209.69,333.00
             209.69,333.00 195.05,292.00 195.05,292.00
             195.05,292.00 187.00,271.00 187.00,271.00 Z" />
</svg>
